<svg width="50" height="51" viewBox="0 0 50 51" fill="none" xmlns="http://www.w3.org/2000/svg">
<g clip-path="url(#clip0_1_52)">
<path d="M10.8366 14.3407C10.6889 14.3452 10.5439 14.3002 10.4248 14.2128C10.3057 14.1254 10.2193 14.0007 10.1794 13.8586C9.87208 12.876 6.74925 12.3909 4.63274 12.3621C4.57076 12.3613 4.50997 12.3449 4.45601 12.3144C4.40204 12.2839 4.35663 12.2404 4.32398 12.1877C4.29132 12.1351 4.27247 12.0751 4.26917 12.0132C4.26587 11.9514 4.27822 11.8897 4.30509 11.8339C5.27944 9.81417 7.0099 8.34464 9.44054 7.46587C11.1575 6.84563 13.1775 6.5306 15.444 6.5306C17.1744 6.5306 18.3805 6.71974 18.4309 6.72773C18.4963 6.73762 18.5578 6.76489 18.6091 6.80668C18.6603 6.84847 18.6993 6.90324 18.722 6.96527C18.7448 7.02729 18.7504 7.09429 18.7384 7.15924C18.7263 7.22419 18.697 7.28471 18.6535 7.33445C18.6381 7.35165 17.1167 9.08217 15.4341 10.7906C11.9431 14.3302 11.1433 14.3407 10.8421 14.3407H10.8366Z" fill="#8787FF"/>
<path d="M15.444 6.89904C16.4235 6.89337 17.4022 6.95781 18.3726 7.09187C18.3726 7.09187 12.339 13.9697 10.8366 13.9697C10.767 13.975 10.6979 13.9553 10.6416 13.9142C10.5852 13.8732 10.5454 13.8134 10.5292 13.7456C10.0018 12.066 4.63766 11.993 4.63766 11.993C6.73942 7.63289 12.0759 6.89597 15.444 6.89597M15.444 6.15906C13.1351 6.15906 11.0726 6.48146 9.31452 7.11643C6.78921 8.03205 4.99051 9.56483 3.97314 11.6736C3.91942 11.7852 3.89471 11.9085 3.90128 12.0321C3.90786 12.1557 3.9455 12.2757 4.01074 12.381C4.07598 12.4862 4.16671 12.5734 4.27457 12.6343C4.38242 12.6953 4.50391 12.7282 4.62782 12.7299C5.51647 12.7526 6.40272 12.8328 7.28099 12.97C9.13748 13.2727 9.75405 13.7401 9.82597 13.9685C9.88913 14.1857 10.0223 14.3761 10.2048 14.51C10.3873 14.6439 10.609 14.7139 10.8354 14.7091C11.4501 14.7091 12.5117 14.2743 15.6917 11.0491C17.3835 9.33332 18.9104 7.59481 18.9258 7.577C19.0126 7.47791 19.0712 7.35741 19.0955 7.22803C19.1199 7.09866 19.1091 6.96512 19.0643 6.84132C19.0195 6.71751 18.9423 6.60796 18.8408 6.52405C18.7392 6.44014 18.617 6.38493 18.4869 6.36417C18.4353 6.35557 17.2015 6.16213 15.4421 6.16213L15.444 6.15906Z" fill="#494999"/>
<path d="M24.0564 30.9458C23.9683 30.9458 23.8812 30.9271 23.8009 30.8909C23.7207 30.8546 23.6491 30.8017 23.5909 30.7356C23.5327 30.6695 23.4893 30.5918 23.4636 30.5077C23.4379 30.4235 23.4304 30.3349 23.4416 30.2476C23.5228 29.6335 23.7588 27.5511 23.4103 26.4506C23.3689 26.325 23.3578 26.1915 23.3778 26.0608C23.3977 25.9301 23.4483 25.8059 23.5252 25.6984C23.7343 25.3913 24.2414 24.9486 26.2227 24.601C27.159 24.4453 28.1029 24.3389 29.0504 24.2823C29.0633 24.2823 29.0763 24.2823 29.0892 24.2823C29.1777 24.282 29.2653 24.3006 29.346 24.3371C29.4267 24.3735 29.4986 24.4268 29.5569 24.4935C29.6152 24.5601 29.6585 24.6384 29.6839 24.7232C29.7092 24.8079 29.716 24.8972 29.7039 24.9848C29.5355 26.213 28.6373 30.2721 24.1541 30.9415C24.1217 30.9453 24.089 30.9467 24.0564 30.9458Z" fill="#6868D9"/>
<path d="M29.0861 24.6495C29.1217 24.6496 29.1568 24.6574 29.1891 24.6723C29.2214 24.6871 29.2502 24.7087 29.2735 24.7356C29.2968 24.7625 29.314 24.794 29.3241 24.8281C29.3342 24.8621 29.3369 24.898 29.332 24.9332C29.1789 26.0508 28.3429 29.9411 24.0933 30.5749C24.0806 30.5758 24.0678 30.5758 24.0552 30.5749C24.0195 30.575 23.9843 30.5675 23.9517 30.5529C23.9192 30.5383 23.8902 30.517 23.8666 30.4903C23.8429 30.4636 23.8253 30.4323 23.8148 30.3982C23.8043 30.3642 23.8011 30.3283 23.8056 30.293C23.9089 29.51 24.1234 27.4829 23.7601 26.337C23.3642 25.0879 27.8591 24.7225 29.0689 24.647H29.0849M29.0849 23.9101C29.0646 23.9101 29.0437 23.9101 29.0234 23.9101C28.0629 23.9678 27.1061 24.0758 26.1569 24.2337C24.523 24.5205 23.6169 24.9092 23.2191 25.4859C23.1108 25.6397 23.0397 25.8166 23.0116 26.0026C22.9834 26.1885 22.9989 26.3785 23.0568 26.5575C23.2763 27.2508 23.2831 28.611 23.0747 30.1947C23.0547 30.3465 23.0702 30.5008 23.1201 30.6454C23.1701 30.7901 23.253 30.9212 23.3623 31.0284C23.4716 31.1356 23.6044 31.216 23.7501 31.2631C23.8959 31.3103 24.0506 31.3229 24.2021 31.3001C25.2975 31.1374 26.2737 30.7622 27.1042 30.1849C27.811 29.6896 28.4117 29.0583 28.8709 28.3279C29.691 27.0414 29.9701 25.7094 30.0629 25.0302C30.0821 24.8906 30.0712 24.7486 30.0309 24.6136C29.9905 24.4786 29.9217 24.3538 29.829 24.2476C29.7364 24.1414 29.622 24.0563 29.4936 23.998C29.3653 23.9397 29.2259 23.9095 29.0849 23.9095V23.9101Z" fill="#494999"/>
<path d="M28.8445 47.4815C27.5376 47.4815 26.3856 46.8767 25.5157 45.7326C24.909 44.9343 24.5777 44.0659 24.4326 43.614C23.7959 43.6905 23.1553 43.7293 22.514 43.73C20.1307 43.73 17.9035 43.1773 15.8989 42.0812C14.0449 41.0698 12.4085 39.6174 11.0352 37.7647C7.14764 32.5216 5.86716 24.6433 7.84474 18.1579C9.11477 13.9974 11.9487 10.2084 15.8258 7.48981C19.4219 4.96588 23.7238 3.51846 27.6286 3.51846C29.5877 3.51846 31.3882 3.87156 32.9804 4.56733C36.5305 6.11854 39.1203 8.46806 40.6786 11.5502C41.8079 13.7843 42.0267 15.7107 42.0685 16.4016C43.046 16.8523 45.0936 17.9779 45.5768 19.6716C45.8073 20.4792 45.653 21.2898 45.1176 22.0795C44.4727 23.0301 43.0662 23.5128 40.9374 23.5128C39.0681 23.5128 37.1876 23.1376 36.6847 23.0307C33.2835 24.784 31.6827 25.083 29.9885 25.3999C28.981 25.5841 27.9433 25.7782 26.4606 26.3014C22.4808 27.7058 20.3336 29.5561 20.3797 35.2985C20.4153 39.7016 23.4232 40.1769 24.7141 40.1769C24.8604 40.1769 24.9803 40.1707 25.0627 40.1646C27.0138 37.7303 28.9736 36.4954 30.8965 36.4954C32.3989 36.4954 33.4464 37.2556 33.9363 37.7082C34.0078 37.7739 34.0607 37.8572 34.0897 37.9498C34.1188 38.0424 34.1229 38.141 34.1017 38.2357C34.0803 38.3306 34.0346 38.4184 33.9689 38.4902C33.9033 38.562 33.82 38.6155 33.7273 38.6453C32.8519 38.9247 30.7766 39.8054 30.4028 41.9492C30.0254 44.1206 30.9795 45.5453 31.4073 46.0562C31.4624 46.1222 31.5014 46.2001 31.5214 46.2837C31.5413 46.3673 31.5416 46.4544 31.5223 46.5381C31.5029 46.6218 31.4644 46.7 31.4098 46.7664C31.3552 46.8328 31.286 46.8857 31.2075 46.9209C30.3739 47.293 29.5785 47.4815 28.8445 47.4815Z" fill="#7A7AFF"/>
<path d="M27.6286 3.88692C29.4813 3.88692 31.2555 4.21484 32.8329 4.90509C41.0831 8.51228 41.6622 15.5873 41.7058 16.5275C41.7063 16.5597 41.7156 16.5913 41.7327 16.6187C41.7498 16.6461 41.7741 16.6682 41.803 16.6828C44.0301 17.6764 46.352 19.5949 44.8152 21.8701C44.1451 22.8588 42.5474 23.1413 40.9424 23.1413C39.0183 23.1413 37.0806 22.7366 36.7044 22.6537C36.6913 22.6507 36.6779 22.6492 36.6645 22.6494C36.6343 22.6496 36.6047 22.6567 36.5778 22.6703C31.1159 25.4914 30.3371 24.5426 26.3376 25.955C22.3179 27.373 19.9604 29.343 20.0059 35.3028C20.0446 40.07 23.3777 40.5466 24.7092 40.5466C24.9207 40.5466 25.0811 40.5349 25.1709 40.5263C25.1959 40.5239 25.2201 40.5163 25.2421 40.5042C25.2641 40.492 25.2834 40.4755 25.2987 40.4557C27.5216 37.656 29.4377 36.8645 30.8928 36.8645C32.2913 36.8645 33.2662 37.5952 33.6824 37.9796C33.7072 38.0015 33.7256 38.0296 33.7358 38.0609C33.746 38.0923 33.7475 38.1259 33.7403 38.158C33.7331 38.1902 33.7173 38.2199 33.6947 38.2439C33.6721 38.268 33.6434 38.2855 33.6117 38.2947C32.7775 38.5606 30.4489 39.5081 30.0358 41.8865C29.6277 44.2354 30.6948 45.7848 31.1202 46.2933C31.1388 46.3155 31.152 46.3417 31.1588 46.3698C31.1656 46.398 31.1658 46.4273 31.1594 46.4556C31.153 46.4838 31.1401 46.5102 31.1218 46.5326C31.1035 46.5551 31.0802 46.573 31.0538 46.585C30.2172 46.9577 29.4832 47.1131 28.8408 47.1131C26.0057 47.1131 24.9496 44.0874 24.7375 43.3628C24.7265 43.3237 24.7029 43.2893 24.6703 43.265C24.6377 43.2406 24.598 43.2278 24.5574 43.2283H24.5334C23.8625 43.3149 23.1868 43.3588 22.5103 43.3597C10.4186 43.3597 4.99731 28.7375 8.1939 18.2635C10.8717 9.50589 19.9506 3.88692 27.6286 3.88692ZM27.6286 3.15C25.6362 3.15 23.5713 3.50433 21.496 4.20318C19.4025 4.91101 17.422 5.91637 15.6155 7.18829C13.7462 8.49062 12.0876 10.0714 10.6977 11.8757C9.26773 13.7256 8.1819 15.8171 7.49188 18.0504C5.48049 24.6433 6.78556 32.6511 10.7389 37.9846C12.1441 39.8803 13.8205 41.367 15.7225 42.4061C17.7837 43.5305 20.0686 44.1003 22.514 44.1003C23.0704 44.0997 23.6264 44.071 24.1799 44.0144C24.4308 44.7098 24.7829 45.3645 25.225 45.9574C26.1686 47.1966 27.4214 47.8518 28.8476 47.8518C29.6338 47.8518 30.4797 47.6523 31.3612 47.2592C31.4922 47.2014 31.6078 47.1139 31.6991 47.0036C31.7903 46.8934 31.8545 46.7634 31.8868 46.624C31.919 46.4846 31.9182 46.3396 31.8846 46.2006C31.851 46.0615 31.7855 45.9322 31.6931 45.8229C31.2985 45.3506 30.4182 44.0346 30.771 42.0155C31.1092 40.0706 33.0333 39.2582 33.8447 38.9991C33.9993 38.9507 34.1383 38.8624 34.2479 38.7433C34.3575 38.6241 34.4337 38.4782 34.4689 38.3203C34.5041 38.1624 34.4971 37.998 34.4485 37.8436C34.3999 37.6893 34.3114 37.5504 34.192 37.4411C33.6621 36.9498 32.5322 36.13 30.9014 36.13C28.8961 36.13 26.8718 37.3674 24.8813 39.8097C24.8322 39.8097 24.7768 39.8097 24.7166 39.8097C23.2492 39.8097 20.7823 39.2238 20.751 35.2967C20.7067 29.7747 22.7673 27.9975 26.5854 26.6496C28.0441 26.135 29.0676 25.944 30.058 25.7585C31.7546 25.4417 33.364 25.1401 36.7333 23.4151C37.3868 23.5496 39.1646 23.8782 40.9338 23.8782C43.1929 23.8782 44.7027 23.3415 45.4213 22.2815C46.0126 21.4095 46.1884 20.4699 45.9303 19.5654C45.7133 18.8051 45.2006 18.0805 44.4057 17.4118C43.7976 16.9129 43.1303 16.4907 42.4189 16.1547C42.3439 15.306 42.0624 13.4711 41.0051 11.382C40.2894 9.96936 39.3442 8.68507 38.208 7.58131C36.8114 6.22048 35.1012 5.09361 33.1255 4.22958C31.486 3.51355 29.6356 3.15 27.6286 3.15Z" fill="#494999"/>
<path d="M41.6941 16.3758C41.5995 14.9965 40.7351 8.35998 32.8297 4.90508C25.1137 1.53247 12.8179 6.81492 8.76494 16.6791C24.735 12.9442 24.7983 12.7809 33.6 15.174C37.5195 16.2407 40.0639 16.4667 41.6941 16.3758Z" fill="#8787FF"/>
<path d="M39.9496 20.4521C30.5442 18.2653 28.4541 18.2653 25.0012 19.6108C21.5483 20.9563 17.0497 24.6096 17.3866 32.2987C17.6417 38.1178 20.6028 39.4916 22.0284 39.8158C20.9581 39.1268 20.0287 37.8065 20.0084 35.3028C19.9604 29.343 22.3179 27.373 26.3352 25.955C30.3524 24.5371 31.1221 25.4982 36.63 22.6389C36.63 22.6389 43.2451 24.1742 44.809 21.8701C45.3567 21.0619 45.417 20.3275 45.1674 19.6593C44.7986 20.6941 43.413 21.2572 39.9496 20.4521Z" fill="#E4E4FF"/>
<path d="M31.639 16.8953C32.7085 16.8953 33.5754 16.0831 33.5754 15.0813C33.5754 14.0794 32.7085 13.2672 31.639 13.2672C30.5696 13.2672 29.7026 14.0794 29.7026 15.0813C29.7026 16.0831 30.5696 16.8953 31.639 16.8953Z" fill="#2E2E5B"/>
<path d="M32.3621 14.9342C32.5753 14.5076 32.3144 13.9453 31.7792 13.6783C31.2441 13.4113 30.6373 13.5406 30.424 13.9672C30.2107 14.3938 30.4717 14.9561 31.0069 15.2232C31.542 15.4902 32.1488 15.3608 32.3621 14.9342Z" fill="white"/>
<path d="M30.677 15.3036C31.0138 15.2422 31.3919 15.5799 31.3114 15.7064C31.3224 15.7875 30.6118 15.952 30.4815 15.6161C30.3881 15.376 30.677 15.3036 30.677 15.3036Z" fill="white"/>
<path d="M18.3769 7.08943C18.3769 7.08943 7.81708 5.40742 4.64201 11.993C4.64201 11.993 10.0061 12.0648 10.5348 13.7468C11.0635 15.4288 18.3769 7.08943 18.3769 7.08943Z" fill="#8787FF"/>
<path d="M16.797 6.93836C13.7307 6.76027 7.05108 6.98933 4.63766 11.993C4.63766 11.993 4.79749 11.993 5.06797 12.0077C5.86711 10.6807 8.425 7.49289 16.4214 7.41674C16.5216 7.25585 16.7681 7.10171 16.797 6.93836Z" fill="#A5A5FF"/>
<path d="M33.6861 37.9797C33.6824 37.976 33.6775 37.9723 33.6738 37.968L33.6517 37.9483L33.6332 37.9318L33.6117 37.9127L33.592 37.8955L33.5674 37.8746C33.5607 37.8691 33.5545 37.863 33.5471 37.8574L33.5047 37.8218L33.4826 37.804L33.4556 37.7825L33.4303 37.7623L33.4039 37.742L33.3769 37.7211L33.3474 37.699L33.308 37.6701L33.2687 37.6413L33.2379 37.6198L33.2078 37.5989L33.1752 37.5768L33.1445 37.5559L33.1107 37.5338L33.0756 37.5117L33.0197 37.4767L32.981 37.4528L32.9435 37.4307L32.9091 37.411L32.8697 37.3883L32.8347 37.3692L32.7941 37.3471L32.7548 37.3263L32.6847 37.2906L32.6441 37.2704L32.6005 37.2495L32.5617 37.2317L32.5162 37.2108L32.4763 37.1936L32.4302 37.174L32.3829 37.1549L32.3048 37.1242L32.2599 37.107L32.2107 37.0898L32.1665 37.0745C32.1499 37.0689 32.1333 37.0628 32.1161 37.0579L32.07 37.0432L32.0195 37.0272L31.9532 37.0088L31.8794 36.9891L31.8296 36.9762L31.7755 36.9639C31.7591 36.9594 31.7425 36.9558 31.7257 36.9529L31.6704 36.9412L31.6187 36.9314L31.564 36.921L31.4657 36.9056L31.4103 36.8982L31.3544 36.8915L31.2966 36.8847L31.2407 36.8798L31.1792 36.8749L31.1177 36.8712H31.0563C31.0231 36.8712 30.9899 36.8712 30.9561 36.8681H30.8331H30.7716H30.7102H30.6487L30.5774 36.8731L30.4969 36.8798L30.4053 36.8896L30.3438 36.8976L30.2743 36.9074L30.2129 36.9179L30.1428 36.9302L30.0813 36.9418L29.9965 36.9596L29.9123 36.9787L29.8194 37.0014L29.758 37.0186L29.71 37.0321C25.8059 42.1328 29.7844 45.4342 31.1645 46.3664C31.1576 46.339 31.1446 46.3136 31.1263 46.2921L31.122 46.2865L31.1104 46.2724L31.079 46.2337L31.0587 46.2085L31.0323 46.1748L31.0065 46.1416L30.9825 46.109L30.953 46.0691L30.9296 46.0372C30.9192 46.0225 30.9081 46.0071 30.8977 45.9911L30.8755 45.9592L30.8399 45.907C30.8331 45.8972 30.8264 45.8874 30.8202 45.8769L30.7809 45.8155L30.7643 45.7891L30.7212 45.7197L30.7132 45.7062C30.6591 45.6159 30.6038 45.5183 30.5491 45.4127C30.548 45.4107 30.5469 45.4086 30.546 45.4065L30.5018 45.3181L30.4858 45.2868L30.4465 45.202L30.4268 45.1603C30.4145 45.1328 30.4022 45.1046 30.3899 45.0755L30.3696 45.0276C30.3573 44.9994 30.3463 44.9705 30.3346 44.9417C30.3272 44.9245 30.3204 44.9073 30.3137 44.8895L30.2805 44.8016L30.2602 44.7451C30.2497 44.7151 30.2393 44.6837 30.2295 44.6549C30.2227 44.6352 30.2159 44.615 30.2098 44.5935L30.1803 44.5007C30.1741 44.4799 30.1686 44.459 30.1624 44.4393C30.1532 44.4074 30.144 44.3779 30.1354 44.3429C30.1299 44.322 30.125 44.3012 30.1194 44.2815C30.1108 44.2471 30.1022 44.2139 30.0936 44.1789L30.0844 44.136C30.0684 44.066 30.0543 43.9947 30.0407 43.9216L30.026 43.84C30.0211 43.8099 30.0168 43.7786 30.0125 43.7485C30.0082 43.7184 30.0026 43.6871 29.9989 43.657C29.9952 43.6269 29.9916 43.5956 29.9879 43.5649C29.9842 43.5341 29.9805 43.5034 29.9774 43.4672C29.9743 43.431 29.9719 43.4058 29.9694 43.3745C29.967 43.3432 29.9639 43.3069 29.962 43.2725C29.9602 43.2382 29.9584 43.2111 29.9571 43.1786C29.9559 43.146 29.9571 43.1074 29.9528 43.0711C29.9485 43.0349 29.9528 43.0097 29.9528 42.9765C29.9528 42.9434 29.9528 42.9016 29.9528 42.8642C29.9528 42.8267 29.9528 42.8028 29.9528 42.7696C29.9528 42.7364 29.9559 42.6898 29.9577 42.6468C29.9596 42.6038 29.9577 42.5854 29.9627 42.5534C29.9627 42.5105 29.9688 42.4675 29.9725 42.4239C29.9725 42.3944 29.9774 42.3625 29.9805 42.3354C29.9848 42.2863 29.9909 42.2372 29.9971 42.1874L30.0063 42.1113C30.0168 42.0358 30.0284 41.9596 30.042 41.8822C30.0536 41.8159 30.0672 41.7502 30.0813 41.6857C30.0844 41.6734 30.0875 41.6605 30.0899 41.6476C30.1047 41.5858 30.1206 41.5244 30.1379 41.4634C30.1409 41.4524 30.1446 41.4413 30.1477 41.4303C30.1649 41.3731 30.1827 41.3166 30.2018 41.2614L30.2073 41.2448C30.2276 41.1834 30.2497 41.1293 30.2725 41.0729L30.2872 41.0378C30.3106 40.9826 30.3346 40.9279 30.3598 40.8751L30.3708 40.8512C30.3948 40.8014 30.42 40.7529 30.4458 40.705C30.4495 40.697 30.4538 40.689 30.4581 40.6817C30.4858 40.6307 30.5141 40.581 30.5436 40.5318L30.5626 40.5011C30.5928 40.452 30.6241 40.4035 30.6555 40.3568L30.6647 40.3439C30.6948 40.2991 30.7262 40.2555 30.7581 40.2125L30.7759 40.1879C30.8091 40.1437 30.8436 40.1001 30.878 40.0578L30.8995 40.032C30.9352 39.989 30.9714 39.9466 31.0083 39.9048C31.0458 39.8631 31.0839 39.8226 31.122 39.782L31.1448 39.7587C31.1823 39.7206 31.2198 39.6832 31.2579 39.6469L31.2794 39.6267C31.3157 39.5923 31.3526 39.5579 31.3901 39.5253L31.4017 39.5143C31.4411 39.4799 31.481 39.4455 31.5247 39.4123L31.5499 39.3915C31.5899 39.3589 31.6298 39.33 31.6698 39.2963L31.6882 39.2822C31.7257 39.2533 31.7632 39.2257 31.8013 39.198L31.8198 39.1845C31.8607 39.155 31.9017 39.1268 31.9427 39.0998L31.9685 39.082C32.0097 39.0543 32.0509 39.0279 32.0915 39.0015L32.1025 38.9948L32.2193 38.9229L32.2415 38.9094C32.2814 38.8854 32.3214 38.8627 32.3607 38.84L32.3853 38.8265L32.5083 38.7602C32.5482 38.7387 32.5882 38.7178 32.6275 38.6988L32.6521 38.6865L32.764 38.6312L32.7855 38.6214C32.8205 38.6048 32.855 38.5882 32.8894 38.5729L32.9005 38.5673L33.008 38.5201L33.0302 38.5108L33.1322 38.4679L33.147 38.4617L33.2379 38.4255L33.2521 38.42L33.3437 38.3856L33.3633 38.3782L33.4494 38.3475H33.4562L33.5324 38.3211L33.5471 38.3162L33.6185 38.2928H33.624C33.6547 38.2824 33.6821 38.2641 33.7034 38.2398C33.7248 38.2155 33.7393 38.1859 33.7456 38.1542C33.7519 38.1224 33.7497 38.0896 33.7393 38.0589C33.7288 38.0283 33.7105 38.001 33.6861 37.9797Z" fill="#6E6EE6"/>
<path d="M42.0421 16.8099L40.359 15.828L42.2997 16.1197L42.0421 16.8099Z" fill="#494999"/>
<path d="M13.9484 29.4677C13.9484 29.4677 17.2144 23.7222 20.6741 22.4535C20.6741 22.4535 17.6392 25.6228 15.2258 33.4163C15.2258 33.4163 13.9342 31.3585 13.9484 29.4677Z" fill="#6868D9"/>
<path d="M21.1652 22.0144C21.1142 22.1078 20.9679 22.2115 20.8911 22.2871C20.2364 22.9012 19.7606 23.6694 19.3223 24.4438C18.9479 25.1119 18.6141 25.8034 18.2932 26.4985C17.3459 28.5908 16.5259 30.7659 15.7532 32.9294C15.7138 33.0282 15.6653 33.2075 15.5946 33.2947C15.3038 33.6632 14.7579 33.5533 14.6049 33.1105C14.2728 32.3878 14.0108 31.6349 13.8223 30.8623C13.3195 28.818 13.3551 26.5753 14.2157 24.6342C14.6372 23.676 15.2334 22.8045 15.9739 22.0642C15.8294 22.2791 15.672 22.4824 15.5436 22.704C13.5377 25.7487 13.7725 29.5997 15.2725 32.801L15.3112 32.8821C15.2957 32.8511 15.2714 32.8252 15.2415 32.8077C15.2115 32.7902 15.1771 32.7818 15.1425 32.7835C15.1078 32.7852 15.0744 32.7969 15.0463 32.8173C15.0182 32.8376 14.9966 32.8657 14.9842 32.898L14.9878 32.887L14.9964 32.8643C15.3653 31.8289 15.7583 30.8023 16.1755 29.7846C16.9746 27.8735 17.8568 25.9772 19.0192 24.254C19.5399 23.511 20.1061 22.7667 20.8585 22.2422L21.0196 22.1348C21.0757 22.1024 21.126 22.0609 21.1683 22.012L21.1652 22.0144Z" fill="#494999"/>
<path d="M40.359 23.5159C39.6151 23.6651 38.8504 23.6675 38.0968 23.5889C36.1831 23.4213 34.3918 22.3294 33.2441 20.804C33.0118 20.5046 32.8123 20.1812 32.649 19.8393C32.9164 20.1052 33.1881 20.3563 33.466 20.5977C35.7221 22.5714 37.4359 23.1013 40.359 23.5159Z" fill="#494999"/>
<path d="M14.2932 8.67686C14.9705 7.97243 15.6913 7.31118 16.4515 6.69702C16.6974 6.48209 16.9667 6.27207 17.271 6.14433C17.6859 5.96011 18.1193 5.83729 18.584 5.84527L18.6148 5.91221C18.2568 6.32145 17.8383 6.67352 17.3736 6.95617C17.1474 7.08943 16.9027 7.19075 16.671 7.3148C15.8786 7.76432 15.1268 8.27586 14.3387 8.73582L14.2932 8.67809V8.67686Z" fill="#494999"/>
<path d="M9.32437 14.5016C9.30593 14.0103 9.48912 13.5565 9.75468 13.1616C9.91759 12.9411 10.1346 12.7624 10.3208 12.5641C10.8206 12.0403 11.3608 11.5566 11.9364 11.1173L11.9892 11.1683C11.888 11.3177 11.7855 11.4651 11.6819 11.6104C11.388 12.036 11.0671 12.5027 10.7825 12.9313C10.5889 13.2224 10.4592 13.5571 10.2163 13.8132C9.97458 14.0883 9.69714 14.3299 9.39138 14.5317L9.32376 14.5016H9.32437Z" fill="#494999"/>
</g>
<defs>
<clipPath id="clip0_1_52">
<rect width="42.2" height="44.7" fill="white" transform="translate(3.9 3.15)"/>
</clipPath>
</defs>
</svg>
