<svg width="600" height="596" viewBox="0 0 600 596" fill="none" xmlns="http://www.w3.org/2000/svg">
<g opacity="0.03">
<g clip-path="url(#clip0_1_27)">
<path d="M468.216 174.837C469.927 174.947 471.625 174.486 473.04 173.526C474.455 172.566 475.506 171.164 476.024 169.543C479.972 158.346 516.369 153.986 540.92 154.487C541.639 154.502 542.35 154.337 542.988 154.007C543.626 153.677 544.169 153.194 544.568 152.6C544.968 152.007 545.21 151.323 545.272 150.612C545.335 149.901 545.215 149.186 544.926 148.532C534.418 124.884 514.929 107.276 487.09 96.1969C467.425 88.377 444.128 83.9534 417.849 83.0616C397.785 82.3808 383.727 84.0849 383.139 84.157C382.377 84.2452 381.653 84.5351 381.043 84.9963C380.433 85.4576 379.959 86.0732 379.671 86.7787C379.383 87.4842 379.291 88.2537 379.406 89.0066C379.52 89.7594 379.837 90.4681 380.322 91.0582C380.493 91.2623 397.457 111.794 416.297 132.135C455.391 174.281 464.66 174.716 468.152 174.835L468.216 174.837Z" fill="#8787FF"/>
<path d="M417.704 87.3056C406.349 86.8549 394.977 87.2121 383.674 88.3745C383.674 88.3745 450.942 169.973 468.361 170.564C469.165 170.652 469.975 170.453 470.644 170.002C471.313 169.551 471.798 168.878 472.012 168.103C478.784 148.964 541.008 150.233 541.008 150.233C518.343 99.1836 456.757 88.5955 417.706 87.2703M417.994 78.7819C444.765 79.6904 468.551 84.2155 488.688 92.2214C517.61 103.762 537.865 122.125 548.837 146.816C549.416 148.123 549.655 149.552 549.53 150.974C549.406 152.395 548.922 153.763 548.125 154.949C547.327 156.136 546.241 157.104 544.967 157.764C543.692 158.424 542.271 158.755 540.833 158.725C530.521 158.638 520.214 159.213 509.977 160.447C488.334 163.204 481.002 168.345 480.079 170.948C479.262 173.425 477.644 175.565 475.475 177.036C473.307 178.506 470.709 179.225 468.086 179.081C460.959 178.839 448.82 173.414 413.21 135.012C394.266 114.582 377.24 93.9561 377.069 93.7449C376.102 92.5694 375.47 91.1583 375.238 89.6585C375.006 88.1586 375.183 86.6247 375.751 85.2163C376.319 83.8078 377.257 82.5763 378.467 81.6497C379.677 80.723 381.115 80.1352 382.632 79.9472C383.234 79.8685 397.615 78.1258 418.014 78.818L417.994 78.7819Z" fill="#494999"/>
<path d="M308.448 360.906C309.469 360.941 310.486 360.759 311.431 360.374C312.376 359.988 313.227 359.406 313.927 358.668C314.627 357.93 315.161 357.052 315.492 356.092C315.824 355.133 315.945 354.115 315.849 353.105C315.148 346 313.225 321.92 317.696 309.381C318.225 307.951 318.406 306.417 318.226 304.903C318.045 303.39 317.508 301.94 316.657 300.671C314.354 297.052 308.647 291.752 285.811 286.969C275.015 284.807 264.113 283.21 253.149 282.185C252.999 282.18 252.85 282.175 252.7 282.17C251.673 282.132 250.65 282.312 249.7 282.7C248.751 283.088 247.896 283.674 247.194 284.419C246.492 285.163 245.96 286.048 245.633 287.015C245.305 287.981 245.191 289.006 245.298 290.02C246.771 304.234 255.597 351.344 307.316 360.818C307.691 360.874 308.069 360.904 308.448 360.906Z" fill="#6868D9"/>
<path d="M252.592 286.401C252.179 286.389 251.769 286.465 251.389 286.623C251.008 286.782 250.666 287.019 250.386 287.319C250.105 287.62 249.893 287.976 249.762 288.364C249.632 288.753 249.587 289.165 249.63 289.572C250.968 302.506 259.141 347.647 308.165 356.619C308.312 356.634 308.46 356.639 308.607 356.634C309.02 356.649 309.432 356.577 309.815 356.421C310.198 356.266 310.543 356.032 310.827 355.734C311.111 355.436 311.328 355.081 311.463 354.694C311.599 354.306 311.649 353.894 311.611 353.485C310.72 344.426 309.025 320.991 313.685 307.935C318.763 293.703 266.79 287.725 252.793 286.379L252.607 286.373M252.895 277.885C253.13 277.893 253.373 277.901 253.608 277.909C264.722 278.951 275.774 280.572 286.717 282.765C305.55 286.711 315.904 291.545 320.29 298.344C321.486 300.158 322.241 302.224 322.494 304.377C322.748 306.53 322.494 308.712 321.753 310.751C318.937 318.651 318.327 334.316 320.124 352.641C320.297 354.397 320.056 356.168 319.421 357.815C318.785 359.462 317.773 360.939 316.463 362.131C315.154 363.323 313.583 364.196 311.875 364.682C310.166 365.167 308.368 365.252 306.62 364.93C293.983 362.624 282.811 357.918 273.407 350.942C265.406 344.959 258.688 337.45 253.649 328.857C244.644 313.715 241.928 298.262 241.118 290.402C240.949 288.787 241.131 287.155 241.652 285.616C242.172 284.077 243.019 282.667 244.135 281.48C245.251 280.293 246.61 279.358 248.121 278.736C249.633 278.115 251.26 277.822 252.896 277.878L252.895 277.885Z" fill="#494999"/>
<path d="M246.468 549.493C261.621 550.008 275.215 543.493 285.747 530.657C293.094 521.7 297.275 511.829 299.134 506.68C306.486 507.812 313.899 508.511 321.334 508.771C348.967 509.709 375.006 504.219 398.677 492.382C420.569 481.461 440.11 465.376 456.757 444.575C503.881 385.71 521.807 295.466 501.413 219.984C488.314 171.56 456.937 126.801 413.047 93.9604C372.338 63.4728 323.025 45.1077 277.751 43.5713C255.036 42.8004 234.022 46.1593 215.289 53.5473C173.522 70.0184 142.575 96.0631 123.302 130.952C109.336 156.242 106.045 178.346 105.291 186.287C93.7817 191.095 69.6 203.255 63.3358 222.574C60.3473 231.785 61.8194 241.183 67.7188 250.49C74.8239 261.694 90.9429 267.807 115.625 268.645C137.3 269.38 159.25 265.798 165.122 264.765C203.873 286.299 222.316 290.373 241.836 294.69C253.446 297.208 265.401 299.852 282.388 306.462C327.982 324.205 352.155 346.363 349.376 412.49C347.242 463.194 312.181 467.486 297.213 466.978C295.517 466.92 294.129 466.802 293.177 466.699C271.506 437.892 249.266 422.896 226.971 422.139C209.552 421.548 197.109 429.893 191.252 434.913C190.397 435.642 189.751 436.581 189.378 437.636C189.005 438.691 188.919 439.825 189.128 440.924C189.338 442.026 189.834 443.055 190.568 443.908C191.301 444.761 192.246 445.41 193.309 445.79C203.349 449.353 227.067 460.313 230.563 485.154C234.09 510.315 222.471 526.35 217.311 532.067C216.647 532.806 216.163 533.687 215.9 534.642C215.636 535.597 215.598 536.6 215.79 537.572C215.981 538.545 216.397 539.46 217.004 540.246C217.611 541.032 218.393 541.669 219.289 542.105C228.809 546.72 237.958 549.205 246.468 549.493Z" fill="#7A7AFF"/>
<path d="M277.607 47.8154C256.125 47.0864 235.427 50.1657 216.868 57.4958C119.8 95.8001 110.32 177.067 109.447 187.88C109.429 188.252 109.309 188.611 109.1 188.92C108.89 189.229 108.6 189.475 108.26 189.631C82.0485 200.2 54.3781 221.385 71.3074 248.197C78.6899 259.849 97.1039 263.732 115.714 264.363C138.023 265.12 160.647 261.221 165.041 260.414C165.194 260.385 165.351 260.374 165.506 260.38C165.855 260.395 166.197 260.489 166.503 260.655C228.728 295.3 238.13 284.678 283.949 302.521C330.001 320.436 356.565 344.055 353.708 412.687C351.396 467.584 312.564 471.762 297.126 471.238C294.674 471.155 292.818 470.957 291.781 470.823C291.492 470.785 291.214 470.689 290.964 470.54C290.714 470.392 290.497 470.194 290.326 469.959C265.648 436.836 243.741 426.964 226.87 426.392C210.655 425.841 199.065 433.875 194.089 438.14C193.794 438.381 193.569 438.698 193.439 439.055C193.308 439.413 193.277 439.798 193.348 440.172C193.42 440.545 193.59 440.893 193.843 441.179C194.096 441.465 194.422 441.678 194.786 441.796C204.354 445.187 230.982 457.018 234.842 484.577C238.657 511.794 225.678 529.221 220.547 534.911C220.323 535.159 220.159 535.456 220.069 535.777C219.979 536.099 219.966 536.437 220.029 536.764C220.093 537.092 220.232 537.401 220.435 537.667C220.639 537.933 220.901 538.148 221.203 538.297C230.758 542.919 239.207 544.998 246.655 545.251C279.527 546.366 292.955 511.93 295.697 503.667C295.84 503.22 296.127 502.833 296.514 502.566C296.901 502.299 297.367 502.166 297.838 502.188L298.116 502.198C305.861 503.459 313.678 504.23 321.521 504.508C461.719 509.265 530.292 342.968 497.323 221.063C469.699 119.132 366.63 50.8365 277.607 47.8154ZM277.896 39.3271C300.996 40.111 324.798 45.005 348.588 53.8713C372.584 62.8483 395.154 75.2081 415.602 90.5699C436.768 106.307 455.38 125.168 470.79 146.498C486.647 168.37 498.419 192.888 505.546 218.885C526.29 295.618 508.029 387.345 460.107 447.224C443.072 468.507 423.055 484.973 400.596 496.193C376.258 508.334 349.542 513.999 321.189 513.037C314.738 512.811 308.303 512.262 301.907 511.391C298.727 519.303 294.388 526.706 289.031 533.361C277.606 547.264 262.824 554.319 246.288 553.758C237.172 553.448 227.443 550.817 217.375 545.943C215.879 545.225 214.572 544.171 213.558 542.865C212.543 541.559 211.849 540.037 211.53 538.418C211.211 536.8 211.276 535.131 211.72 533.542C212.164 531.954 212.975 530.49 214.088 529.267C218.848 523.982 229.569 509.17 226.268 485.773C223.108 463.238 201.116 453.122 191.809 449.818C190.036 449.2 188.458 448.129 187.234 446.713C186.01 445.298 185.183 443.587 184.837 441.754C184.49 439.921 184.636 438.03 185.26 436.271C185.884 434.513 186.964 432.948 188.391 431.736C194.727 426.285 208.148 417.287 227.057 417.928C250.307 418.717 273.294 433.767 295.418 462.682C295.988 462.701 296.63 462.723 297.328 462.747C314.342 463.324 343.173 457.547 345.072 412.323C347.744 348.735 324.547 327.453 280.805 310.424C264.093 303.922 252.3 301.32 240.89 298.794C221.342 294.476 202.8 290.37 164.409 269.174C156.78 270.466 136.038 273.551 115.526 272.855C89.332 271.966 72.0367 265.19 64.1189 252.698C57.6031 242.421 55.932 231.529 59.2791 221.211C62.0923 212.539 68.3199 204.394 77.7971 197.004C85.0431 191.497 92.945 186.896 101.325 183.306C102.526 173.559 106.508 152.534 119.583 128.886C128.434 112.896 139.894 98.4746 153.499 86.2077C170.225 71.0821 190.494 58.7749 213.739 49.5997C233.028 41.9969 254.624 38.5374 277.896 39.3271Z" fill="#494999"/>
<path d="M109.642 186.137C111.279 170.287 123.894 94.1826 216.904 57.4969C307.687 21.6846 448.186 87.3699 491.322 202.588C307.617 153.283 306.946 151.376 203.959 175.479C158.098 186.224 128.509 187.826 109.642 186.137Z" fill="#8787FF"/>
<path d="M128.276 233.778C238.181 212.29 262.415 213.112 301.924 229.969C341.433 246.826 392.164 290.677 385.253 379.113C380.02 446.043 345.15 460.701 328.495 463.875C341.173 456.36 352.466 441.517 353.68 412.686C356.565 344.055 330.001 320.436 283.977 302.522C237.953 284.608 228.654 295.376 165.909 260.274C165.909 260.274 88.6104 275.355 71.3787 248.199C65.344 238.675 64.9326 230.191 68.0875 222.593C71.9595 234.658 87.8048 241.689 128.276 233.778Z" fill="#E4E4FF"/>
<path d="M226.023 196.078C213.623 195.657 203.889 185.961 204.281 174.421C204.672 162.88 215.042 153.866 227.441 154.287C239.841 154.708 249.575 164.404 249.184 175.944C248.792 187.485 238.423 196.499 226.023 196.078Z" fill="#2E2E5B"/>
<path d="M218.406 173.204C216.1 168.206 219.345 161.832 225.655 158.967C231.964 156.102 238.949 157.831 241.255 162.828C243.561 167.826 240.316 174.201 234.006 177.066C227.697 179.931 220.713 178.202 218.406 173.204Z" fill="white"/>
<path d="M237.8 178.122C233.918 177.282 229.402 181.024 230.287 182.512C230.127 183.442 238.302 185.617 239.944 181.799C241.121 179.07 237.8 178.122 237.8 178.122Z" fill="white"/>
<path d="M383.624 88.3446C383.624 88.3446 506.718 73.1249 540.957 150.232C540.957 150.232 478.735 148.949 471.947 168.115C465.16 187.282 383.624 88.3446 383.624 88.3446Z" fill="#8787FF"/>
<path d="M402.001 87.2261C437.623 86.3812 514.981 91.6479 541.008 150.233C541.008 150.233 539.154 150.17 536.013 150.234C527.266 134.633 498.854 96.9077 406.169 92.8843C405.071 90.9915 402.273 89.1191 402.001 87.2261Z" fill="#A5A5FF"/>
<path d="M194.047 438.138C194.091 438.097 194.149 438.057 194.194 438.009L194.458 437.791L194.678 437.607L194.935 437.397L195.17 437.206L195.463 436.975C195.544 436.914 195.618 436.846 195.705 436.785L196.211 436.392L196.475 436.195L196.797 435.958L197.097 435.735L197.411 435.512L197.733 435.282L198.084 435.039L198.551 434.722L199.019 434.405L199.383 434.169L199.741 433.941L200.127 433.699L200.492 433.471L200.892 433.229L201.307 432.988L201.97 432.607L202.428 432.347L202.871 432.107L203.278 431.894L203.743 431.648L204.157 431.442L204.636 431.203L205.1 430.978L205.927 430.596L206.405 430.378L206.919 430.155L207.375 429.965L207.911 429.742L208.381 429.56L208.923 429.352L209.479 429.151L210.397 428.828L210.924 428.648L211.501 428.469L212.02 428.31C212.214 428.253 212.409 428.188 212.611 428.138L213.151 427.987L213.742 427.823L214.519 427.637L215.382 427.439L215.964 427.31L216.596 427.19C216.788 427.145 216.982 427.109 217.178 427.083L217.824 426.97L218.426 426.877L219.065 426.778L220.211 426.64L220.855 426.577L221.507 426.521L222.179 426.466L222.83 426.432L223.545 426.399L224.259 426.381L224.971 426.405C225.356 426.418 225.741 426.431 226.134 426.409L227.56 426.458L228.273 426.482L228.985 426.506L229.698 426.53L230.523 426.615L231.454 426.724L232.512 426.873L233.222 426.99L234.023 427.13L234.732 427.275L235.54 427.444L236.248 427.602L237.225 427.841L238.194 428.093L239.261 428.391L239.967 428.614L240.518 428.788C283.791 489.078 236.371 525.54 220.005 535.735C220.095 535.422 220.257 535.135 220.476 534.894L220.528 534.832L220.669 534.674L221.048 534.241L221.293 533.959L221.613 533.58L221.925 533.208L222.216 532.843L222.573 532.394L222.857 532.036C222.984 531.87 223.118 531.698 223.245 531.518L223.514 531.159L223.948 530.572C224.031 530.461 224.113 530.35 224.188 530.233L224.668 529.541L224.871 529.243L225.397 528.461L225.495 528.308C226.158 527.29 226.837 526.187 227.513 524.992C227.527 524.969 227.54 524.946 227.551 524.922L228.099 523.921L228.296 523.566L228.785 522.606L229.03 522.133C229.183 521.821 229.337 521.501 229.491 521.171L229.745 520.627C229.898 520.307 230.038 519.978 230.184 519.651C230.277 519.455 230.362 519.26 230.447 519.058L230.866 518.059L231.124 517.416C231.257 517.074 231.39 516.717 231.515 516.389C231.601 516.165 231.688 515.934 231.767 515.689L232.146 514.632C232.225 514.394 232.298 514.156 232.377 513.932C232.496 513.568 232.614 513.232 232.728 512.832C232.8 512.594 232.865 512.355 232.937 512.131C233.05 511.738 233.163 511.36 233.277 510.96L233.4 510.468C233.613 509.668 233.805 508.853 233.99 508.017L234.193 507.082C234.262 506.737 234.324 506.378 234.386 506.033C234.447 505.688 234.524 505.33 234.578 504.985C234.633 504.64 234.688 504.28 234.743 503.928C234.797 503.576 234.852 503.224 234.902 502.807C234.952 502.391 234.99 502.102 235.031 501.742C235.072 501.383 235.121 500.966 235.156 500.571C235.191 500.176 235.223 499.865 235.25 499.491C235.277 499.116 235.278 498.67 235.342 498.255C235.406 497.839 235.366 497.547 235.379 497.165C235.392 496.783 235.408 496.302 235.423 495.871C235.437 495.439 235.447 495.163 235.46 494.781C235.473 494.399 235.455 493.861 235.451 493.365C235.446 492.869 235.475 492.657 235.43 492.288C235.447 491.792 235.392 491.295 235.367 490.791C235.378 490.452 235.334 490.082 235.309 489.769C235.278 489.202 235.226 488.634 235.174 488.058L235.097 487.177C235.005 486.303 234.9 485.422 234.773 484.525C234.664 483.756 234.532 482.994 234.394 482.246C234.363 482.103 234.332 481.954 234.309 481.804C234.162 481.086 234.001 480.372 233.825 479.663C233.794 479.535 233.755 479.406 233.724 479.277C233.547 478.613 233.362 477.955 233.163 477.311L233.105 477.117C232.894 476.402 232.658 475.771 232.417 475.111L232.259 474.702C232.01 474.056 231.753 473.417 231.482 472.799L231.363 472.519C231.104 471.937 230.831 471.368 230.55 470.806C230.511 470.713 230.464 470.619 230.417 470.532C230.116 469.934 229.808 469.35 229.485 468.773L229.276 468.412C228.946 467.834 228.601 467.263 228.256 466.713L228.154 466.561C227.822 466.032 227.476 465.518 227.122 465.01L226.925 464.72C226.557 464.198 226.175 463.682 225.793 463.18L225.553 462.875C225.157 462.366 224.753 461.863 224.342 461.368C223.923 460.872 223.497 460.39 223.071 459.908L222.816 459.63C222.396 459.177 221.976 458.731 221.549 458.299L221.307 458.057C220.9 457.646 220.486 457.236 220.064 456.846L219.933 456.714C219.49 456.302 219.04 455.891 218.547 455.491L218.263 455.241C217.812 454.85 217.36 454.502 216.91 454.097L216.702 453.928C216.278 453.58 215.854 453.247 215.423 452.914L215.215 452.751C214.751 452.395 214.287 452.054 213.822 451.726L213.53 451.511C213.063 451.177 212.596 450.856 212.136 450.536L212.01 450.454L210.684 449.58L210.433 449.416C209.979 449.125 209.525 448.847 209.077 448.57L208.798 448.405L207.398 447.592C206.943 447.329 206.488 447.073 206.039 446.838L205.759 446.687L204.483 446.006L204.238 445.885C203.838 445.68 203.445 445.475 203.052 445.285L202.926 445.217L201.697 444.63L201.444 444.515L200.278 443.98L200.109 443.903L199.068 443.45L198.907 443.381L197.858 442.949L197.633 442.856L196.647 442.468L196.569 442.466L195.695 442.132L195.526 442.069L194.708 441.772L194.644 441.77C194.293 441.638 193.982 441.417 193.744 441.128C193.506 440.839 193.349 440.493 193.288 440.125C193.227 439.757 193.266 439.379 193.399 439.031C193.532 438.682 193.756 438.374 194.047 438.138Z" fill="#6E6EE6"/>
<path d="M105.438 191.002L125.336 180.353L102.721 182.95L105.438 191.002Z" fill="#494999"/>
<path d="M426.224 347.857C426.224 347.857 390.601 280.391 350.983 264.416C350.983 264.416 384.933 302.117 409.869 392.838C409.869 392.838 425.648 369.642 426.224 347.857Z" fill="#6868D9"/>
<path d="M345.461 259.165C346.016 260.26 347.671 261.513 348.533 262.414C355.884 269.745 361.1 278.781 365.879 287.873C369.959 295.717 373.559 303.813 377.007 311.947C387.173 336.419 395.831 361.797 403.944 387.021C404.362 388.175 404.855 390.26 405.641 391.292C408.868 395.651 415.24 394.599 417.188 389.56C421.32 381.365 424.653 372.796 427.14 363.971C433.769 340.621 434.233 314.774 425.013 292.076C420.501 280.873 413.929 270.6 405.633 261.781C407.224 264.313 408.969 266.717 410.372 269.321C432.439 305.181 428.211 349.447 409.568 385.732L409.088 386.65C409.28 386.299 409.571 386.011 409.925 385.821C410.279 385.632 410.681 385.548 411.082 385.581C411.484 385.614 411.867 385.763 412.185 386.008C412.503 386.253 412.742 386.585 412.873 386.963L412.835 386.834L412.744 386.569C408.872 374.498 404.717 362.518 400.277 350.631C391.758 328.303 382.272 306.113 369.467 285.807C363.721 277.043 357.447 268.247 348.928 261.91L347.103 260.609C346.465 260.214 345.898 259.716 345.426 259.136L345.461 259.165Z" fill="#494999"/>
<path d="M122.332 268.908C130.898 270.919 139.763 271.248 148.532 270.639C170.786 269.461 191.982 257.589 205.885 240.47C208.696 237.112 211.135 233.465 213.162 229.591C209.957 232.549 206.709 235.335 203.393 238.006C176.464 259.853 156.385 265.283 122.332 268.908Z" fill="#494999"/>
<path d="M430.352 108.237C422.775 99.856 414.676 91.9556 406.101 84.5821C403.334 82.0096 400.295 79.4845 396.816 77.8934C392.077 75.6081 387.1 74.0228 381.709 73.9319L381.326 74.6909C385.317 79.5457 390.032 83.7658 395.309 87.2044C397.88 88.8283 400.677 90.0918 403.315 91.6118C412.327 97.1015 420.844 103.29 429.802 108.898L430.352 108.251L430.352 108.237Z" fill="#494999"/>
<path d="M485.687 177.285C486.093 171.634 484.146 166.334 481.221 161.681C479.419 159.078 476.972 156.934 474.89 154.576C469.301 148.346 463.227 142.561 456.725 137.275L456.092 137.841C457.207 139.602 458.338 141.34 459.483 143.055C462.724 148.073 466.262 153.575 469.394 158.624C471.525 162.053 472.899 165.959 475.614 169.005C478.309 172.269 481.432 175.161 484.898 177.605L485.694 177.285L485.687 177.285Z" fill="#494999"/>
</g>
</g>
<defs>
<clipPath id="clip0_1_27">
<rect width="489.571" height="515.185" fill="white" transform="matrix(-0.999425 -0.0339158 -0.0339158 0.999425 553.017 48.6634)"/>
</clipPath>
</defs>
</svg>
