<svg width="50" height="51" viewBox="0 0 50 51" fill="none" xmlns="http://www.w3.org/2000/svg">
<g clip-path="url(#clip0_1_97)">
<path d="M20.7924 25.4361L43.4723 25.9777M20.7924 25.4361L16.9258 36.1744C16.8689 36.317 16.8541 36.473 16.8833 36.6238C16.9124 36.7746 16.9842 36.9139 17.0902 37.025C17.1962 37.1362 17.3319 37.2146 17.4811 37.2509C17.6303 37.2872 17.7868 37.2799 17.9321 37.2299L43.4723 25.9777M20.7924 25.4361L17.4427 14.5254C17.3927 14.3802 17.3854 14.2237 17.4217 14.0745C17.458 13.9252 17.5364 13.7896 17.6476 13.6836C17.7588 13.5776 17.898 13.5058 18.0488 13.4766C18.1996 13.4475 18.3556 13.4622 18.4983 13.5191L43.4723 25.9777" stroke="#7A7AFF" stroke-width="2" stroke-linecap="round" stroke-linejoin="round"/>
</g>
<defs>
<clipPath id="clip0_1_97">
<rect width="35" height="35" fill="white" transform="translate(25.5068 0.792847) rotate(46.3679)"/>
</clipPath>
</defs>
</svg>
