<svg width="449" height="349" viewBox="0 0 449 349" fill="none" xmlns="http://www.w3.org/2000/svg">
<path d="M-66.2909 -250.749C-39.0968 -278.144 -5.75969 -293.536 29.7746 -304.217C51.9685 -310.887 74.6268 -315.631 97.1488 -320.346C110.978 -323.242 124.757 -326.127 138.344 -329.44C148.74 -331.975 159.23 -334.702 169.742 -337.434C194.898 -343.972 220.173 -350.541 244.54 -354.587C279.064 -360.32 310.831 -360.792 336.69 -349.271C361.948 -338.018 376.548 -316.515 387.257 -290.52C392.612 -277.519 396.94 -263.531 401.151 -249.291C401.833 -246.985 402.512 -244.67 403.192 -242.352C406.694 -230.426 410.219 -218.416 414.265 -206.965C415.833 -202.528 417.42 -198.11 419.005 -193.701C435.278 -148.417 451.192 -104.129 441.383 -50.8144C430.267 9.5995 405.655 76.9731 353.358 125.512C328.455 148.624 298.6 158.051 266.924 166.083C262.744 167.143 258.528 168.179 254.288 169.221C226.628 176.017 197.946 183.065 171.592 198.63C142.873 215.59 117.778 241.305 93.5454 266.135C88.5996 271.203 83.6898 276.234 78.7924 281.147C49.571 310.457 20.8329 335.526 -13.2257 342.167C-80.3969 355.263 -125.158 308.089 -162.735 265.59C-197.306 226.491 -218.311 174.892 -213.162 114.937C-210.808 87.5325 -197.293 60.1602 -181.026 31.9104C-177.316 25.4675 -173.46 18.9751 -169.577 12.4368C-156.599 -9.41278 -143.316 -31.775 -134.174 -54.5144C-124.111 -79.5429 -119.612 -105.751 -115.247 -131.18C-113.684 -140.286 -112.139 -149.292 -110.36 -158.108C-103.562 -191.817 -93.3212 -223.519 -66.2909 -250.749Z" stroke="#E4E4FF" stroke-width="8"/>
</svg>
