<svg width="403" height="203" viewBox="0 0 403 203" fill="none" xmlns="http://www.w3.org/2000/svg">
<path d="M529.086 587.123C508.292 612.486 479.421 626.084 447.351 635.057C431.32 639.542 414.586 642.846 397.756 645.907C393.683 646.648 389.6 647.375 385.521 648.101C372.799 650.367 360.108 652.628 347.856 655.274C338.321 657.334 328.74 659.575 319.148 661.819C296.227 667.18 273.24 672.557 250.634 675.515C218.682 679.696 188.252 678.906 161.141 666.526C134.486 654.355 116.299 632.465 101.155 606.531C93.5836 593.567 86.8272 579.69 80.1526 565.607C79.07 563.323 77.9891 561.033 76.9071 558.74C71.3412 546.946 65.7481 535.093 59.7593 523.764C57.4381 519.373 55.1008 514.999 52.768 510.633C28.757 465.694 5.22973 421.661 4.78684 369.934C4.28486 311.308 15.4836 246.816 56.386 201.872C75.7237 180.624 102.298 172.675 131.264 166.105C135.065 165.243 138.911 164.405 142.784 163.56C168.054 158.052 194.472 152.293 217.067 138.047C241.691 122.522 261.185 98.2136 279.851 74.9386C283.65 70.2018 287.414 65.5078 291.18 60.9393C313.793 33.5116 336.479 10.5182 367.552 5.4781C398.475 0.462357 426.961 9.89474 453.342 26.1218C479.78 42.3845 503.767 65.2595 525.618 86.6733C566.271 126.513 596.048 178.007 602.197 236.425C604.998 263.028 597.122 289.097 586.759 315.966C584.401 322.079 581.908 328.244 579.395 334.461C570.972 355.293 562.315 376.705 557.727 398.631C554.275 415.131 553.439 432.103 553.41 448.955C553.397 456.823 553.561 464.706 553.723 472.509C553.734 473.065 553.746 473.619 553.757 474.174C553.929 482.538 554.086 490.808 554.012 498.973C553.719 531.695 549.722 561.952 529.086 587.123Z" stroke="#E4E4FF" stroke-width="8"/>
</svg>
